<svg width="152" height="26" viewBox="0 0 152 26" fill="none" xmlns="http://www.w3.org/2000/svg">
<g clip-path="url(#clip0_329_60)">
<rect x="38" y="10" width="2" height="6" rx="1" fill="#201830"/>
<rect x="70" y="10" width="2" height="6" rx="1" fill="#201830"/>
<rect x="110" y="10" width="2" height="6" rx="1" fill="#A4A0AB"/>
<rect x="78" y="10" width="2" height="6" rx="1" fill="#201830"/>
<rect x="118" y="10" width="2" height="6" rx="1" fill="#A4A0AB"/>
<rect x="150" y="10" width="2" height="6" rx="1" fill="#A4A0AB"/>
<rect x="46" y="5" width="2" height="16" rx="1" fill="#201830"/>
<rect x="62" y="5" width="2" height="16" rx="1" fill="#201830"/>
<rect x="102" y="5" width="2" height="16" rx="1" fill="#A4A0AB"/>
<rect x="142" y="5" width="2" height="16" rx="1" fill="#A4A0AB"/>
<rect x="86" y="5" width="2" height="16" rx="1" fill="#201830"/>
<rect x="126" y="5" width="2" height="16" rx="1" fill="#A4A0AB"/>
<rect x="54" width="2" height="26" rx="1" fill="#201830"/>
<rect x="94" width="2" height="26" rx="1" fill="#A4A0AB"/>
<rect x="134" width="2" height="26" rx="1" fill="#A4A0AB"/>
<circle cx="13" cy="13" r="12.5" stroke="#936CDD"/>
<path d="M16.85 12.9134C16.9167 12.9519 16.9167 13.0481 16.85 13.0866L11.15 16.3775C11.0833 16.416 11 16.3679 11 16.2909V9.7091C11 9.63212 11.0833 9.58401 11.15 9.6225L16.85 12.9134Z" fill="#936CDD"/>
</g>
<defs>
<clipPath id="clip0_329_60">
<rect width="152" height="26" fill="white"/>
</clipPath>
</defs>
</svg>
